<mxfile host="Electron" modified="2025-01-28T15:48:36.689Z" agent="Mozilla/5.0 (Windows NT 10.0; Win64; x64) AppleWebKit/537.36 (KHTML, like Gecko) draw.io/24.4.13 Chrome/124.0.6367.207 Electron/30.0.6 Safari/537.36" etag="P1iYUFO_hc_t8no7kEoa" version="24.4.13" type="device">
  <diagram id="C5RBs43oDa-KdzZeNtuy" name="Page-1">
    <mxGraphModel dx="1434" dy="854" grid="1" gridSize="10" guides="1" tooltips="1" connect="1" arrows="1" fold="1" page="1" pageScale="1" pageWidth="2336" pageHeight="1654" math="0" shadow="0">
      <root>
        <mxCell id="WIyWlLk6GJQsqaUBKTNV-0" />
        <mxCell id="WIyWlLk6GJQsqaUBKTNV-1" parent="WIyWlLk6GJQsqaUBKTNV-0" />
        <mxCell id="Z5Z9sO1ALVpMapYNrZaP-10" style="edgeStyle=orthogonalEdgeStyle;rounded=0;orthogonalLoop=1;jettySize=auto;html=1;endArrow=block;endFill=1;" edge="1" parent="WIyWlLk6GJQsqaUBKTNV-1" source="UP2SmdmnmiDTw7j5yn1o-20" target="Z5Z9sO1ALVpMapYNrZaP-0">
          <mxGeometry relative="1" as="geometry" />
        </mxCell>
        <mxCell id="UP2SmdmnmiDTw7j5yn1o-20" value="BMScenario&#xa;(bf.mt.ScenarioBase)" style="swimlane;fontStyle=3;align=center;verticalAlign=top;childLayout=stackLayout;horizontal=1;startSize=40;horizontalStack=0;resizeParent=1;resizeLast=0;collapsible=1;marginBottom=0;rounded=0;shadow=1;strokeWidth=1;fillColor=#f8cecc;strokeColor=#b85450;swimlaneFillColor=#ffffff;gradientColor=#FFFFFF;" parent="WIyWlLk6GJQsqaUBKTNV-1" vertex="1">
          <mxGeometry x="640" y="360" width="300" height="330" as="geometry">
            <mxRectangle x="230" y="140" width="160" height="26" as="alternateBounds" />
          </mxGeometry>
        </mxCell>
        <mxCell id="UP2SmdmnmiDTw7j5yn1o-27" value="C_TYPE = &#39;Benchmark Scenario&#39;" style="text;align=left;verticalAlign=top;spacingLeft=4;spacingRight=4;overflow=hidden;rotatable=0;points=[[0,0.5],[1,0.5]];portConstraint=eastwest;" parent="UP2SmdmnmiDTw7j5yn1o-20" vertex="1">
          <mxGeometry y="40" width="300" height="26" as="geometry" />
        </mxCell>
        <mxCell id="UP2SmdmnmiDTw7j5yn1o-28" value="C_NAME = &#39;????&#39;" style="text;align=left;verticalAlign=top;spacingLeft=4;spacingRight=4;overflow=hidden;rotatable=0;points=[[0,0.5],[1,0.5]];portConstraint=eastwest;fontColor=#0000FF;" parent="UP2SmdmnmiDTw7j5yn1o-20" vertex="1">
          <mxGeometry y="66" width="300" height="26" as="geometry" />
        </mxCell>
        <mxCell id="Z5Z9sO1ALVpMapYNrZaP-11" value="_bm_workflow : bf.mt.Workflow" style="text;align=left;verticalAlign=top;spacingLeft=4;spacingRight=4;overflow=hidden;rotatable=0;points=[[0,0.5],[1,0.5]];portConstraint=eastwest;" vertex="1" parent="UP2SmdmnmiDTw7j5yn1o-20">
          <mxGeometry y="92" width="300" height="26" as="geometry" />
        </mxCell>
        <mxCell id="UP2SmdmnmiDTw7j5yn1o-25" value="" style="line;html=1;strokeWidth=1;align=left;verticalAlign=middle;spacingTop=-1;spacingLeft=3;spacingRight=3;rotatable=0;labelPosition=right;points=[];portConstraint=eastwest;" parent="UP2SmdmnmiDTw7j5yn1o-20" vertex="1">
          <mxGeometry y="118" width="300" height="8" as="geometry" />
        </mxCell>
        <mxCell id="f72OymnG5Jdyl8jaYfJm-5" value="__init__( p_mode,&#xa;               p_cycle_limit=0,&#xa;               p_auto_setup : bool = True,&#xa;               p_visualize : bool =True,&#xa;               p_logging=Log.C_LOG_ALL,&#xa;               **p_kwargs )" style="text;align=left;verticalAlign=top;spacingLeft=4;spacingRight=4;overflow=hidden;rotatable=0;points=[[0,0.5],[1,0.5]];portConstraint=eastwest;fontColor=#FF0000;" parent="UP2SmdmnmiDTw7j5yn1o-20" vertex="1">
          <mxGeometry y="126" width="300" height="94" as="geometry" />
        </mxCell>
        <mxCell id="4z1ZA7iLyQSW-nbc1bQL-0" value="setup( **p_kwargs )" style="text;align=left;verticalAlign=top;spacingLeft=4;spacingRight=4;overflow=hidden;rotatable=0;points=[[0,0.5],[1,0.5]];portConstraint=eastwest;fontColor=#FF0000;" parent="UP2SmdmnmiDTw7j5yn1o-20" vertex="1">
          <mxGeometry y="220" width="300" height="24" as="geometry" />
        </mxCell>
        <mxCell id="dl7jBH0QpKdt2L9IKGmV-27" value="_set_mode( p_mode )" style="text;align=left;verticalAlign=top;spacingLeft=4;spacingRight=4;overflow=hidden;rotatable=0;points=[[0,0.5],[1,0.5]];portConstraint=eastwest;fontColor=#FF0000;" parent="UP2SmdmnmiDTw7j5yn1o-20" vertex="1">
          <mxGeometry y="244" width="300" height="30" as="geometry" />
        </mxCell>
        <mxCell id="dl7jBH0QpKdt2L9IKGmV-29" value="&lt;span style=&quot;font-family: helvetica; font-size: 12px; font-style: normal; font-weight: 400; letter-spacing: normal; text-align: left; text-indent: 0px; text-transform: none; word-spacing: 0px; background-color: rgb(248, 249, 250); display: inline; float: none;&quot;&gt;_reset( p_seed )&lt;/span&gt;" style="text;whiteSpace=wrap;html=1;fontColor=#FF0000;" parent="UP2SmdmnmiDTw7j5yn1o-20" vertex="1">
          <mxGeometry y="274" width="300" height="28" as="geometry" />
        </mxCell>
        <mxCell id="dl7jBH0QpKdt2L9IKGmV-9" value="_run_cycle() -&gt; bool, bool, bool, bool" style="text;align=left;verticalAlign=top;spacingLeft=4;spacingRight=4;overflow=hidden;rotatable=0;points=[[0,0.5],[1,0.5]];portConstraint=eastwest;fontColor=#FF0000;" parent="UP2SmdmnmiDTw7j5yn1o-20" vertex="1">
          <mxGeometry y="302" width="300" height="26" as="geometry" />
        </mxCell>
        <mxCell id="4z1ZA7iLyQSW-nbc1bQL-4" value="" style="group" parent="WIyWlLk6GJQsqaUBKTNV-1" vertex="1" connectable="0">
          <mxGeometry x="40" y="40" width="480" height="220" as="geometry" />
        </mxCell>
        <mxCell id="4z1ZA7iLyQSW-nbc1bQL-5" value="&lt;font color=&quot;#000000&quot; size=&quot;1&quot;&gt;&lt;b style=&quot;font-size: 14px&quot;&gt;Legend:&lt;br&gt;&lt;/b&gt;&lt;/font&gt;&lt;br&gt;&lt;br&gt;&lt;br&gt;&lt;font color=&quot;#0000ff&quot; style=&quot;font-size: 6px&quot;&gt;&lt;br&gt;&lt;/font&gt;&lt;span style=&quot;color: rgb(0 , 0 , 0)&quot;&gt;&lt;font style=&quot;font-size: 4px&quot;&gt;&amp;nbsp; &amp;nbsp;&lt;/font&gt;&amp;nbsp;In progress&amp;nbsp; &amp;nbsp; &amp;nbsp; &amp;nbsp; &amp;nbsp; &amp;nbsp; In validation&amp;nbsp; &amp;nbsp; &amp;nbsp; &amp;nbsp; &amp;nbsp; &amp;nbsp;Ready to use&lt;/span&gt;&lt;font color=&quot;#000000&quot;&gt;&amp;nbsp;&lt;br&gt;&lt;/font&gt;&lt;font color=&quot;#0000ff&quot;&gt;&lt;br&gt;&lt;br&gt;&lt;br&gt;&lt;br&gt;&amp;nbsp;attribute / method()&amp;nbsp; &amp;nbsp; &amp;nbsp; &amp;nbsp; New public attribute/method to be implemented&lt;/font&gt;&lt;br&gt;&lt;font color=&quot;#000000&quot;&gt;&amp;nbsp;&lt;/font&gt;&lt;font color=&quot;#000000&quot;&gt;attribute / method()&lt;span&gt;&#x9;&lt;/span&gt;&amp;nbsp; &amp;nbsp; &amp;nbsp; &amp;nbsp;New/inherited public attribute/method that is implemented here&lt;br&gt;&lt;/font&gt;&lt;font color=&quot;#0000ff&quot;&gt;&amp;nbsp;_attribute /&amp;nbsp;&lt;/font&gt;&lt;font color=&quot;#0000ff&quot;&gt;_method()&amp;nbsp; &amp;nbsp; New protected method/attribute to be implemented&lt;/font&gt;&lt;br&gt;&lt;font color=&quot;#000000&quot;&gt;&amp;nbsp;_attribute / _method()&amp;nbsp; &amp;nbsp; New/inherited protected Method that is implemented here&lt;br&gt;&lt;/font&gt;&lt;font color=&quot;#000000&quot;&gt;&lt;br&gt;&lt;br&gt;&lt;br&gt;&lt;br&gt;&lt;br&gt;&lt;/font&gt;" style="text;html=1;align=left;verticalAlign=top;whiteSpace=wrap;rounded=0;fontColor=#006600;strokeColor=#000000;shadow=1;fillColor=#ffffff;" parent="4z1ZA7iLyQSW-nbc1bQL-4" vertex="1">
          <mxGeometry width="480" height="220" as="geometry" />
        </mxCell>
        <mxCell id="4z1ZA7iLyQSW-nbc1bQL-6" value="Depends on" style="endArrow=block;html=1;labelPosition=right;verticalLabelPosition=middle;align=left;verticalAlign=middle;endFill=1;fontSize=12;" parent="4z1ZA7iLyQSW-nbc1bQL-4" edge="1">
          <mxGeometry x="-1590" y="-2180" width="50" height="50" as="geometry">
            <mxPoint x="9.99969696969697" y="120.00301587301601" as="sourcePoint" />
            <mxPoint x="54.84818181818173" y="120.00301587301601" as="targetPoint" />
            <mxPoint x="98" as="offset" />
            <Array as="points">
              <mxPoint x="30" y="120" />
            </Array>
          </mxGeometry>
        </mxCell>
        <mxCell id="4z1ZA7iLyQSW-nbc1bQL-7" value="Inherits from" style="endArrow=block;html=1;labelPosition=right;verticalLabelPosition=middle;align=left;verticalAlign=middle;endFill=0;fontSize=12;" parent="4z1ZA7iLyQSW-nbc1bQL-4" edge="1">
          <mxGeometry x="-1590" y="-2180" width="50" height="50" as="geometry">
            <mxPoint x="9.99969696969697" y="132.3846031746034" as="sourcePoint" />
            <mxPoint x="54.84818181818173" y="132.3846031746034" as="targetPoint" />
            <mxPoint x="98" y="1" as="offset" />
          </mxGeometry>
        </mxCell>
        <mxCell id="4z1ZA7iLyQSW-nbc1bQL-8" value="" style="swimlane;fontStyle=3;align=center;verticalAlign=top;childLayout=stackLayout;horizontal=1;startSize=26;horizontalStack=0;resizeParent=1;resizeLast=0;collapsible=1;marginBottom=0;rounded=0;shadow=1;strokeWidth=1;fillColor=#f8cecc;strokeColor=#b85450;gradientColor=#ffffff;swimlaneFillColor=#ffffff;" parent="4z1ZA7iLyQSW-nbc1bQL-4" vertex="1">
          <mxGeometry x="10" y="40" width="40" height="34" as="geometry">
            <mxRectangle x="230" y="140" width="160" height="26" as="alternateBounds" />
          </mxGeometry>
        </mxCell>
        <mxCell id="4z1ZA7iLyQSW-nbc1bQL-9" value="" style="line;html=1;strokeWidth=1;align=left;verticalAlign=middle;spacingTop=-1;spacingLeft=3;spacingRight=3;rotatable=0;labelPosition=right;points=[];portConstraint=eastwest;" parent="4z1ZA7iLyQSW-nbc1bQL-8" vertex="1">
          <mxGeometry y="26" width="40" height="8" as="geometry" />
        </mxCell>
        <mxCell id="4z1ZA7iLyQSW-nbc1bQL-10" value="" style="swimlane;fontStyle=3;align=center;verticalAlign=top;childLayout=stackLayout;horizontal=1;startSize=26;horizontalStack=0;resizeParent=1;resizeLast=0;collapsible=1;marginBottom=0;rounded=0;shadow=1;strokeWidth=1;fillColor=#fff2cc;strokeColor=#d6b656;gradientColor=#ffffff;swimlaneFillColor=#ffffff;" parent="4z1ZA7iLyQSW-nbc1bQL-4" vertex="1">
          <mxGeometry x="110" y="40" width="40" height="34" as="geometry">
            <mxRectangle x="230" y="140" width="160" height="26" as="alternateBounds" />
          </mxGeometry>
        </mxCell>
        <mxCell id="4z1ZA7iLyQSW-nbc1bQL-11" value="" style="line;html=1;strokeWidth=1;align=left;verticalAlign=middle;spacingTop=-1;spacingLeft=3;spacingRight=3;rotatable=0;labelPosition=right;points=[];portConstraint=eastwest;" parent="4z1ZA7iLyQSW-nbc1bQL-10" vertex="1">
          <mxGeometry y="26" width="40" height="8" as="geometry" />
        </mxCell>
        <mxCell id="4z1ZA7iLyQSW-nbc1bQL-12" value="" style="swimlane;fontStyle=3;align=center;verticalAlign=top;childLayout=stackLayout;horizontal=1;startSize=26;horizontalStack=0;resizeParent=1;resizeLast=0;collapsible=1;marginBottom=0;rounded=0;shadow=1;strokeWidth=1;fillColor=#dae8fc;strokeColor=#6c8ebf;gradientColor=#ffffff;swimlaneFillColor=#ffffff;" parent="4z1ZA7iLyQSW-nbc1bQL-4" vertex="1">
          <mxGeometry x="210" y="40" width="40" height="34" as="geometry">
            <mxRectangle x="230" y="140" width="160" height="26" as="alternateBounds" />
          </mxGeometry>
        </mxCell>
        <mxCell id="4z1ZA7iLyQSW-nbc1bQL-13" value="" style="line;html=1;strokeWidth=1;align=left;verticalAlign=middle;spacingTop=-1;spacingLeft=3;spacingRight=3;rotatable=0;labelPosition=right;points=[];portConstraint=eastwest;" parent="4z1ZA7iLyQSW-nbc1bQL-12" vertex="1">
          <mxGeometry y="26" width="40" height="8" as="geometry" />
        </mxCell>
        <mxCell id="EWvmsKcDzw4Ju58KhNLj-2" value="Template class for benachmark scenarios in MLPro.&amp;nbsp;" style="rounded=1;whiteSpace=wrap;html=1;fillColor=#fff2cc;strokeColor=#d6b656;shadow=1;fontStyle=1;align=left;verticalAlign=top;spacingLeft=2;" parent="WIyWlLk6GJQsqaUBKTNV-1" vertex="1">
          <mxGeometry x="920" y="300" width="100" height="70" as="geometry" />
        </mxCell>
        <mxCell id="Z5Z9sO1ALVpMapYNrZaP-0" value="BMTest&#xa;(bf.mt.Task)" style="swimlane;fontStyle=3;align=center;verticalAlign=top;childLayout=stackLayout;horizontal=1;startSize=40;horizontalStack=0;resizeParent=1;resizeLast=0;collapsible=1;marginBottom=0;rounded=0;shadow=1;strokeWidth=1;fillColor=#f8cecc;strokeColor=#b85450;swimlaneFillColor=#ffffff;gradientColor=#FFFFFF;" vertex="1" parent="WIyWlLk6GJQsqaUBKTNV-1">
          <mxGeometry x="1060" y="360" width="300" height="120" as="geometry">
            <mxRectangle x="230" y="140" width="160" height="26" as="alternateBounds" />
          </mxGeometry>
        </mxCell>
        <mxCell id="Z5Z9sO1ALVpMapYNrZaP-1" value="C_TYPE = &#39;Benchmark Test&#39;" style="text;align=left;verticalAlign=top;spacingLeft=4;spacingRight=4;overflow=hidden;rotatable=0;points=[[0,0.5],[1,0.5]];portConstraint=eastwest;" vertex="1" parent="Z5Z9sO1ALVpMapYNrZaP-0">
          <mxGeometry y="40" width="300" height="26" as="geometry" />
        </mxCell>
        <mxCell id="Z5Z9sO1ALVpMapYNrZaP-2" value="C_NAME = &#39;????&#39;" style="text;align=left;verticalAlign=top;spacingLeft=4;spacingRight=4;overflow=hidden;rotatable=0;points=[[0,0.5],[1,0.5]];portConstraint=eastwest;fontColor=#0000FF;" vertex="1" parent="Z5Z9sO1ALVpMapYNrZaP-0">
          <mxGeometry y="66" width="300" height="26" as="geometry" />
        </mxCell>
        <mxCell id="Z5Z9sO1ALVpMapYNrZaP-3" value="" style="line;html=1;strokeWidth=1;align=left;verticalAlign=middle;spacingTop=-1;spacingLeft=3;spacingRight=3;rotatable=0;labelPosition=right;points=[];portConstraint=eastwest;" vertex="1" parent="Z5Z9sO1ALVpMapYNrZaP-0">
          <mxGeometry y="92" width="300" height="8" as="geometry" />
        </mxCell>
        <mxCell id="Z5Z9sO1ALVpMapYNrZaP-12" value="BMParameter&#xa;(bf.math.Dimension)" style="swimlane;fontStyle=3;align=center;verticalAlign=top;childLayout=stackLayout;horizontal=1;startSize=40;horizontalStack=0;resizeParent=1;resizeLast=0;collapsible=1;marginBottom=0;rounded=0;shadow=1;strokeWidth=1;fillColor=#f8cecc;strokeColor=#b85450;swimlaneFillColor=#ffffff;gradientColor=#FFFFFF;" vertex="1" parent="WIyWlLk6GJQsqaUBKTNV-1">
          <mxGeometry x="220" y="358" width="300" height="62" as="geometry">
            <mxRectangle x="230" y="140" width="160" height="26" as="alternateBounds" />
          </mxGeometry>
        </mxCell>
        <mxCell id="Z5Z9sO1ALVpMapYNrZaP-15" value="" style="line;html=1;strokeWidth=1;align=left;verticalAlign=middle;spacingTop=-1;spacingLeft=3;spacingRight=3;rotatable=0;labelPosition=right;points=[];portConstraint=eastwest;" vertex="1" parent="Z5Z9sO1ALVpMapYNrZaP-12">
          <mxGeometry y="40" width="300" height="8" as="geometry" />
        </mxCell>
        <mxCell id="Z5Z9sO1ALVpMapYNrZaP-16" value="Beware! This is&lt;div&gt;a layer2 class.&lt;/div&gt;" style="rounded=1;whiteSpace=wrap;html=1;fillColor=#FF9999;strokeColor=#d6b656;shadow=1;fontStyle=1;align=left;verticalAlign=top;spacingLeft=2;" vertex="1" parent="WIyWlLk6GJQsqaUBKTNV-1">
          <mxGeometry x="500" y="320" width="100" height="50" as="geometry" />
        </mxCell>
      </root>
    </mxGraphModel>
  </diagram>
</mxfile>
